<svg width="159" height="32" viewBox="0 0 159 32" fill="none" xmlns="http://www.w3.org/2000/svg">
<rect width="159" height="32" fill="#080808"/>
<rect width="32" height="32" fill="white"/>
<path d="M9 13.0664H11.0934C11.3804 13.0664 11.6393 13.083 11.87 13.1162C12.1063 13.1494 12.3174 13.2268 12.5031 13.3485C12.6663 13.4537 12.8041 13.603 12.9167 13.7967C13.0292 13.9903 13.0855 14.2365 13.0855 14.5353C13.0855 14.834 13.0152 15.0996 12.8745 15.332C12.7394 15.5643 12.5284 15.7358 12.2414 15.8465C12.6241 15.9129 12.9111 16.0733 13.1024 16.3278C13.2937 16.5768 13.3894 16.9004 13.3894 17.2988C13.3725 17.6639 13.2937 17.9488 13.153 18.1535C13.0123 18.3582 12.8323 18.5187 12.6128 18.6349C12.3933 18.751 12.1457 18.8313 11.87 18.8755C11.5999 18.9142 11.3269 18.9336 11.0512 18.9336H9V13.0664ZM9.73438 13.722V15.639H10.8824C11.0399 15.639 11.2031 15.6279 11.372 15.6058C11.5408 15.5837 11.6927 15.5367 11.8278 15.4647C11.9853 15.3873 12.112 15.2822 12.2076 15.1494C12.3089 15.0111 12.3624 14.823 12.368 14.5851C12.368 14.397 12.3342 14.2476 12.2667 14.1369C12.1992 14.0207 12.1063 13.9322 11.9882 13.8714C11.87 13.8105 11.7349 13.7718 11.583 13.7552C11.431 13.7331 11.2707 13.722 11.1018 13.722H9.73438ZM11.0259 18.278C11.2059 18.278 11.386 18.2697 11.5661 18.2531C11.7518 18.2365 11.9263 18.195 12.0895 18.1286C12.2583 18.0567 12.3933 17.9544 12.4946 17.8216C12.5959 17.6833 12.6466 17.4979 12.6466 17.2656C12.6466 17.0664 12.6072 16.9032 12.5284 16.7759C12.4552 16.6487 12.3539 16.5491 12.2245 16.4772C12.1007 16.4053 11.9572 16.3555 11.794 16.3278C11.6308 16.3001 11.4648 16.2863 11.296 16.2863H9.73438V18.278H11.0259Z" fill="black"/>
<path d="M13.856 13.0664H15.9494C16.2364 13.0664 16.4952 13.083 16.7259 13.1162C16.9623 13.1494 17.1733 13.2268 17.359 13.3485C17.5222 13.4537 17.6601 13.603 17.7726 13.7967C17.8852 13.9903 17.9415 14.2365 17.9415 14.5353C17.9415 14.834 17.8711 15.0996 17.7304 15.332C17.5954 15.5643 17.3843 15.7358 17.0973 15.8465C17.48 15.9129 17.767 16.0733 17.9583 16.3278C18.1497 16.5768 18.2453 16.9004 18.2453 17.2988C18.2285 17.6639 18.1497 17.9488 18.009 18.1535C17.8683 18.3582 17.6882 18.5187 17.4688 18.6349C17.2493 18.751 17.0017 18.8313 16.7259 18.8755C16.4558 18.9142 16.1829 18.9336 15.9071 18.9336H13.856V13.0664ZM14.5903 13.722V15.639H15.7383C15.8959 15.639 16.0591 15.6279 16.2279 15.6058C16.3967 15.5837 16.5487 15.5367 16.6837 15.4647C16.8413 15.3873 16.9679 15.2822 17.0636 15.1494C17.1649 15.0111 17.2183 14.823 17.224 14.5851C17.224 14.397 17.1902 14.2476 17.1227 14.1369C17.0551 14.0207 16.9623 13.9322 16.8441 13.8714C16.7259 13.8105 16.5909 13.7718 16.4389 13.7552C16.287 13.7331 16.1266 13.722 15.9578 13.722H14.5903ZM15.8818 18.278C16.0619 18.278 16.242 18.2697 16.4221 18.2531C16.6078 18.2365 16.7822 18.195 16.9454 18.1286C17.1142 18.0567 17.2493 17.9544 17.3506 17.8216C17.4519 17.6833 17.5025 17.4979 17.5025 17.2656C17.5025 17.0664 17.4631 16.9032 17.3843 16.7759C17.3112 16.6487 17.2099 16.5491 17.0805 16.4772C16.9567 16.4053 16.8132 16.3555 16.65 16.3278C16.4868 16.3001 16.3208 16.2863 16.1519 16.2863H14.5903V18.278H15.8818Z" fill="black"/>
<path d="M20.7884 13.6556C20.6309 13.6556 20.4705 13.6694 20.3073 13.6971C20.1497 13.7248 20.0062 13.7746 19.8768 13.8465C19.7474 13.9129 19.6404 14.0069 19.556 14.1286C19.4772 14.2448 19.4378 14.3942 19.4378 14.5768C19.4378 14.7981 19.4969 14.9779 19.6151 15.1162C19.7333 15.249 19.8768 15.3513 20.0456 15.4232C20.1807 15.4786 20.3242 15.5256 20.4761 15.5643C20.628 15.603 20.7828 15.639 20.9404 15.6722C21.1036 15.7054 21.2611 15.7386 21.4131 15.7718C21.5706 15.805 21.7226 15.8465 21.8689 15.8963C22.2122 16.0124 22.4851 16.1784 22.6877 16.3942C22.8959 16.61 23 16.8949 23 17.249C23 17.5809 22.9409 17.8548 22.8227 18.0705C22.7102 18.2863 22.5554 18.4633 22.3585 18.6017C22.1671 18.74 21.942 18.8423 21.6832 18.9087C21.4299 18.9696 21.1598 19 20.8728 19C20.5858 19 20.3101 18.9723 20.0456 18.917C19.7867 18.8617 19.5504 18.7704 19.3366 18.6432C19.1227 18.5159 18.9398 18.3499 18.7879 18.1452C18.6359 17.9405 18.529 17.6916 18.4671 17.3983H19.2353C19.2915 17.5864 19.3788 17.7414 19.4969 17.8631C19.6151 17.9848 19.7502 18.0816 19.9021 18.1535C20.054 18.2254 20.2172 18.2752 20.3917 18.3029C20.5718 18.3306 20.749 18.3444 20.9235 18.3444C21.0923 18.3444 21.2555 18.3278 21.4131 18.2946C21.5763 18.2559 21.7198 18.1978 21.8436 18.1203C21.9674 18.0429 22.0658 17.9433 22.139 17.8216C22.2122 17.6999 22.2487 17.5533 22.2487 17.3817C22.2487 17.1217 22.1784 16.9281 22.0377 16.8008C21.897 16.6736 21.7085 16.5768 21.4722 16.5104C21.3146 16.4606 21.1486 16.4191 20.9741 16.3859C20.7997 16.3527 20.6252 16.3167 20.4508 16.278C20.2763 16.2393 20.1047 16.195 19.9359 16.1452C19.767 16.0899 19.6123 16.0263 19.4716 15.9544C19.2465 15.8492 19.058 15.6888 18.9061 15.473C18.7541 15.2517 18.6781 14.9751 18.6781 14.6432C18.6781 14.3333 18.74 14.0733 18.8638 13.8631C18.9877 13.6528 19.148 13.4841 19.345 13.3568C19.542 13.2296 19.7614 13.1383 20.0034 13.083C20.251 13.0277 20.5127 13 20.7884 13C21.0135 13.0055 21.2161 13.0249 21.3962 13.0581C21.5819 13.0858 21.7563 13.1383 21.9195 13.2158C22.1728 13.3264 22.3838 13.4924 22.5526 13.7137C22.7214 13.935 22.8143 14.2199 22.8312 14.5685H22.1137C22.0912 14.397 22.0377 14.2531 21.9533 14.1369C21.8745 14.0207 21.776 13.9267 21.6579 13.8548C21.5397 13.7828 21.4046 13.7331 21.2527 13.7054C21.1064 13.6722 20.9516 13.6556 20.7884 13.6556Z" fill="black"/>
<path d="M40.87 19V11.93H43.32C43.84 11.93 44.2867 12.0167 44.66 12.19C45.0333 12.3567 45.3167 12.6133 45.51 12.96C45.71 13.3067 45.81 13.7467 45.81 14.28C45.81 14.8 45.6933 15.24 45.46 15.6C45.2333 15.9533 44.92 16.22 44.52 16.4C44.12 16.58 43.66 16.67 43.14 16.67H41.74V19H40.87ZM41.74 15.88H43.1C43.64 15.88 44.0767 15.7533 44.41 15.5C44.75 15.24 44.92 14.82 44.92 14.24C44.92 13.7333 44.7833 13.3533 44.51 13.1C44.2367 12.8467 43.8267 12.72 43.28 12.72H41.74V15.88ZM45.5543 19L48.1843 11.93H49.4343L52.0543 19H51.1143L50.5543 17.48H47.0543L46.4943 19H45.5543ZM47.3443 16.69H50.2643L48.8043 12.69L47.3443 16.69ZM52.8235 19V11.93H53.6935V15.19H54.7435L57.0435 11.93H58.0435L55.5035 15.44L58.0635 19H57.0335L54.8135 15.98H53.6935V19H52.8235ZM58.8735 19V11.93H63.6235V12.72H59.7435V15.1H63.2335V15.9H59.7435V18.21H63.6235V19H58.8735ZM66.317 19V12.72H64.047V11.93H69.457V12.72H67.187V19H66.317ZM70.2704 19V11.93H71.1404V15.13H74.9304V11.93H75.8004V19H74.9304V15.93H71.1404V19H70.2704ZM77.336 19V11.93H78.206V14.85H79.456C79.8027 14.85 80.1327 14.8767 80.446 14.93C80.766 14.9833 81.0493 15.08 81.296 15.22C81.5427 15.36 81.736 15.56 81.876 15.82C82.0227 16.0733 82.096 16.4067 82.096 16.82C82.096 17.2267 82.0293 17.57 81.896 17.85C81.7627 18.13 81.576 18.3567 81.336 18.53C81.096 18.6967 80.8127 18.8167 80.486 18.89C80.1593 18.9633 79.8027 19 79.416 19H77.336ZM78.206 18.21H79.306C79.546 18.21 79.7793 18.1933 80.006 18.16C80.2393 18.1267 80.446 18.0667 80.626 17.98C80.806 17.8867 80.9493 17.7533 81.056 17.58C81.1627 17.4 81.216 17.1667 81.216 16.88C81.216 16.5933 81.1627 16.3667 81.056 16.2C80.956 16.0333 80.816 15.91 80.636 15.83C80.456 15.75 80.256 15.7 80.036 15.68C79.816 15.6533 79.5893 15.64 79.356 15.64H78.206V18.21ZM83.136 19V11.93H84.006V19H83.136ZM85.5442 19V11.93H86.4142V17.64L90.2042 11.93H91.1242V19H90.2542V13.34L86.4542 19H85.5442ZM88.3342 11.33C87.9476 11.33 87.6176 11.27 87.3442 11.15C87.0776 11.03 86.8709 10.86 86.7242 10.64C86.5842 10.4133 86.5076 10.14 86.4942 9.82H87.3242C87.3376 10.0733 87.4342 10.27 87.6142 10.41C87.7942 10.5433 88.0342 10.61 88.3342 10.61C88.6342 10.61 88.8742 10.5433 89.0542 10.41C89.2342 10.27 89.3309 10.0733 89.3442 9.82H90.1742C90.1676 10.14 90.0909 10.4133 89.9442 10.64C89.7976 10.86 89.5876 11.03 89.3142 11.15C89.0476 11.27 88.7209 11.33 88.3342 11.33ZM95.1638 19V11.93H99.9738V12.72H96.0338V14.85H97.6438C97.9904 14.85 98.3204 14.8767 98.6338 14.93C98.9538 14.9833 99.2371 15.08 99.4838 15.22C99.7304 15.36 99.9238 15.56 100.064 15.82C100.21 16.0733 100.284 16.4067 100.284 16.82C100.284 17.2267 100.217 17.57 100.084 17.85C99.9504 18.13 99.7638 18.3567 99.5238 18.53C99.2838 18.6967 99.0004 18.8167 98.6738 18.89C98.3471 18.9633 97.9904 19 97.6038 19H95.1638ZM96.0338 18.21H97.4938C97.7338 18.21 97.9671 18.1933 98.1938 18.16C98.4271 18.1267 98.6338 18.0667 98.8138 17.98C98.9938 17.8867 99.1371 17.7533 99.2438 17.58C99.3504 17.4 99.4038 17.1667 99.4038 16.88C99.4038 16.5933 99.3504 16.3667 99.2438 16.2C99.1438 16.0333 99.0038 15.91 98.8238 15.83C98.6438 15.75 98.4438 15.7 98.2238 15.68C98.0038 15.6533 97.7771 15.64 97.5438 15.64H96.0338V18.21ZM101.797 19.01V18.19C102.07 18.19 102.31 18.1667 102.517 18.12C102.73 18.0733 102.92 17.98 103.087 17.84C103.26 17.7 103.42 17.49 103.567 17.21L100.787 11.93H101.817L104.067 16.31L105.847 11.93H106.787L105.517 14.92C105.43 15.1333 105.317 15.4067 105.177 15.74C105.037 16.0667 104.88 16.41 104.707 16.77C104.54 17.1233 104.363 17.4533 104.177 17.76C103.997 18.0667 103.813 18.3033 103.627 18.47C103.38 18.69 103.11 18.8367 102.817 18.91C102.523 18.9767 102.183 19.01 101.797 19.01ZM106.719 19.07V18.21C106.886 18.21 107.033 18.1767 107.159 18.11C107.286 18.0367 107.393 17.9367 107.479 17.81C107.573 17.6833 107.639 17.5433 107.679 17.39C107.733 17.19 107.769 16.9833 107.789 16.77C107.816 16.55 107.833 16.33 107.839 16.11C107.853 15.89 107.859 15.68 107.859 15.48L107.929 11.93H112.639V19H111.769V12.72H108.799L108.739 14.92C108.726 15.4067 108.713 15.8767 108.699 16.33C108.693 16.7767 108.653 17.1833 108.579 17.55C108.513 17.9167 108.379 18.2233 108.179 18.47C108.033 18.65 107.839 18.7933 107.599 18.9C107.366 19 107.073 19.0567 106.719 19.07ZM114.173 19V11.93H115.043V14.85H116.493C116.846 14.85 117.18 14.8767 117.493 14.93C117.813 14.9833 118.096 15.08 118.343 15.22C118.59 15.36 118.783 15.56 118.923 15.82C119.07 16.0733 119.143 16.4067 119.143 16.82C119.15 17.24 119.08 17.59 118.933 17.87C118.793 18.15 118.596 18.3733 118.343 18.54C118.096 18.7067 117.81 18.8267 117.483 18.9C117.156 18.9667 116.806 19 116.433 19H114.173ZM115.043 18.21H116.353C116.6 18.21 116.836 18.1967 117.063 18.17C117.29 18.1367 117.493 18.0767 117.673 17.99C117.853 17.8967 117.993 17.7633 118.093 17.59C118.2 17.41 118.253 17.1733 118.253 16.88C118.253 16.5933 118.2 16.3667 118.093 16.2C117.993 16.0333 117.853 15.91 117.673 15.83C117.493 15.75 117.293 15.7 117.073 15.68C116.853 15.6533 116.626 15.64 116.393 15.64H115.043V18.21ZM120.301 19V11.93H122.781C123.134 11.93 123.454 11.96 123.741 12.02C124.028 12.0733 124.274 12.1667 124.481 12.3C124.694 12.4333 124.858 12.6133 124.971 12.84C125.084 13.0667 125.141 13.3533 125.141 13.7C125.141 14.06 125.058 14.38 124.891 14.66C124.731 14.94 124.481 15.1467 124.141 15.28C124.594 15.36 124.934 15.5533 125.161 15.86C125.388 16.16 125.501 16.55 125.501 17.03C125.501 17.41 125.428 17.7267 125.281 17.98C125.141 18.2333 124.941 18.4367 124.681 18.59C124.428 18.7367 124.134 18.8433 123.801 18.91C123.468 18.97 123.111 19 122.731 19H120.301ZM121.171 18.21H122.701C122.908 18.21 123.121 18.2 123.341 18.18C123.568 18.1533 123.778 18.1033 123.971 18.03C124.164 17.95 124.321 17.8267 124.441 17.66C124.561 17.4933 124.621 17.27 124.621 16.99C124.621 16.75 124.574 16.5533 124.481 16.4C124.394 16.2467 124.274 16.1267 124.121 16.04C123.974 15.9533 123.804 15.8933 123.611 15.86C123.418 15.8267 123.221 15.81 123.021 15.81H121.171V18.21ZM121.171 15.03H122.531C122.778 15.03 123.008 15.01 123.221 14.97C123.434 14.9233 123.621 14.85 123.781 14.75C123.941 14.65 124.064 14.52 124.151 14.36C124.244 14.2 124.291 14 124.291 13.76C124.291 13.4533 124.221 13.2267 124.081 13.08C123.941 12.9333 123.758 12.8367 123.531 12.79C123.304 12.7433 123.058 12.72 122.791 12.72H121.171V15.03ZM125.894 19L128.524 11.93H129.774L132.394 19H131.454L130.894 17.48H127.394L126.834 19H125.894ZM127.684 16.69H130.604L129.144 12.69L127.684 16.69ZM133.163 19V11.93H135.613C136.133 11.93 136.58 12.0167 136.953 12.19C137.326 12.3567 137.61 12.6133 137.803 12.96C138.003 13.3067 138.103 13.7467 138.103 14.28C138.103 14.8 137.986 15.24 137.753 15.6C137.526 15.9533 137.213 16.22 136.813 16.4C136.413 16.58 135.953 16.67 135.433 16.67H134.033V19H133.163ZM134.033 15.88H135.393C135.933 15.88 136.37 15.7533 136.703 15.5C137.043 15.24 137.213 14.82 137.213 14.24C137.213 13.7333 137.076 13.3533 136.803 13.1C136.53 12.8467 136.12 12.72 135.573 12.72H134.033V15.88ZM142.528 19V13.33H141.088V12.74C141.355 12.72 141.592 12.69 141.798 12.65C142.005 12.6033 142.188 12.5267 142.348 12.42C142.515 12.3067 142.662 12.1433 142.788 11.93H143.398V19H142.528ZM147.551 19.08C147.071 19.08 146.658 18.99 146.311 18.81C145.971 18.6233 145.691 18.3733 145.471 18.06C145.258 17.74 145.101 17.38 145.001 16.98C144.901 16.5733 144.851 16.1467 144.851 15.7C144.851 15.1733 144.901 14.68 145.001 14.22C145.108 13.7533 145.271 13.3433 145.491 12.99C145.718 12.6367 146.011 12.36 146.371 12.16C146.731 11.9533 147.164 11.85 147.671 11.85C148.011 11.85 148.328 11.91 148.621 12.03C148.921 12.1433 149.181 12.3167 149.401 12.55C149.621 12.7767 149.784 13.0567 149.891 13.39H148.981C148.861 13.1433 148.678 12.9567 148.431 12.83C148.184 12.7033 147.928 12.64 147.661 12.64C147.354 12.64 147.091 12.7 146.871 12.82C146.651 12.9333 146.464 13.0867 146.311 13.28C146.164 13.4733 146.044 13.6933 145.951 13.94C145.864 14.1867 145.801 14.4433 145.761 14.71C145.721 14.9767 145.701 15.2367 145.701 15.49C145.854 15.2567 146.031 15.0667 146.231 14.92C146.438 14.7733 146.661 14.6667 146.901 14.6C147.148 14.5267 147.398 14.49 147.651 14.49C148.118 14.49 148.521 14.5867 148.861 14.78C149.208 14.9667 149.478 15.23 149.671 15.57C149.864 15.9033 149.961 16.29 149.961 16.73C149.961 17.1967 149.858 17.6067 149.651 17.96C149.444 18.3133 149.158 18.59 148.791 18.79C148.431 18.9833 148.018 19.08 147.551 19.08ZM147.531 18.29C147.831 18.29 148.094 18.2267 148.321 18.1C148.554 17.9667 148.738 17.79 148.871 17.57C149.004 17.3433 149.071 17.0933 149.071 16.82C149.071 16.5267 149.008 16.2667 148.881 16.04C148.754 15.8133 148.578 15.6333 148.351 15.5C148.131 15.3667 147.871 15.3 147.571 15.3C147.298 15.3 147.038 15.3633 146.791 15.49C146.544 15.61 146.344 15.7833 146.191 16.01C146.044 16.23 145.971 16.4933 145.971 16.8C145.971 17.08 146.038 17.3333 146.171 17.56C146.311 17.78 146.498 17.9567 146.731 18.09C146.971 18.2233 147.238 18.29 147.531 18.29Z" fill="white"/>
</svg>
