<svg width="232" height="32" viewBox="0 0 232 32" fill="none" xmlns="http://www.w3.org/2000/svg">
<rect width="232" height="32" fill="#080808"/>
<rect width="32" height="32" fill="white"/>
<path d="M9 13.0664H11.0934C11.3804 13.0664 11.6393 13.083 11.87 13.1162C12.1063 13.1494 12.3174 13.2268 12.5031 13.3485C12.6663 13.4537 12.8041 13.603 12.9167 13.7967C13.0292 13.9903 13.0855 14.2365 13.0855 14.5353C13.0855 14.834 13.0152 15.0996 12.8745 15.332C12.7394 15.5643 12.5284 15.7358 12.2414 15.8465C12.6241 15.9129 12.9111 16.0733 13.1024 16.3278C13.2937 16.5768 13.3894 16.9004 13.3894 17.2988C13.3725 17.6639 13.2937 17.9488 13.153 18.1535C13.0123 18.3582 12.8323 18.5187 12.6128 18.6349C12.3933 18.751 12.1457 18.8313 11.87 18.8755C11.5999 18.9142 11.3269 18.9336 11.0512 18.9336H9V13.0664ZM9.73438 13.722V15.639H10.8824C11.0399 15.639 11.2031 15.6279 11.372 15.6058C11.5408 15.5837 11.6927 15.5367 11.8278 15.4647C11.9853 15.3873 12.112 15.2822 12.2076 15.1494C12.3089 15.0111 12.3624 14.823 12.368 14.5851C12.368 14.397 12.3342 14.2476 12.2667 14.1369C12.1992 14.0207 12.1063 13.9322 11.9882 13.8714C11.87 13.8105 11.7349 13.7718 11.583 13.7552C11.431 13.7331 11.2707 13.722 11.1018 13.722H9.73438ZM11.0259 18.278C11.2059 18.278 11.386 18.2697 11.5661 18.2531C11.7518 18.2365 11.9263 18.195 12.0895 18.1286C12.2583 18.0567 12.3933 17.9544 12.4946 17.8216C12.5959 17.6833 12.6466 17.4979 12.6466 17.2656C12.6466 17.0664 12.6072 16.9032 12.5284 16.7759C12.4552 16.6487 12.3539 16.5491 12.2245 16.4772C12.1007 16.4053 11.9572 16.3555 11.794 16.3278C11.6308 16.3001 11.4648 16.2863 11.296 16.2863H9.73438V18.278H11.0259Z" fill="black"/>
<path d="M13.856 13.0664H15.9494C16.2364 13.0664 16.4952 13.083 16.7259 13.1162C16.9623 13.1494 17.1733 13.2268 17.359 13.3485C17.5222 13.4537 17.6601 13.603 17.7726 13.7967C17.8852 13.9903 17.9415 14.2365 17.9415 14.5353C17.9415 14.834 17.8711 15.0996 17.7304 15.332C17.5954 15.5643 17.3843 15.7358 17.0973 15.8465C17.48 15.9129 17.767 16.0733 17.9583 16.3278C18.1497 16.5768 18.2453 16.9004 18.2453 17.2988C18.2285 17.6639 18.1497 17.9488 18.009 18.1535C17.8683 18.3582 17.6882 18.5187 17.4688 18.6349C17.2493 18.751 17.0017 18.8313 16.7259 18.8755C16.4558 18.9142 16.1829 18.9336 15.9071 18.9336H13.856V13.0664ZM14.5903 13.722V15.639H15.7383C15.8959 15.639 16.0591 15.6279 16.2279 15.6058C16.3967 15.5837 16.5487 15.5367 16.6837 15.4647C16.8413 15.3873 16.9679 15.2822 17.0636 15.1494C17.1649 15.0111 17.2183 14.823 17.224 14.5851C17.224 14.397 17.1902 14.2476 17.1227 14.1369C17.0551 14.0207 16.9623 13.9322 16.8441 13.8714C16.7259 13.8105 16.5909 13.7718 16.4389 13.7552C16.287 13.7331 16.1266 13.722 15.9578 13.722H14.5903ZM15.8818 18.278C16.0619 18.278 16.242 18.2697 16.4221 18.2531C16.6078 18.2365 16.7822 18.195 16.9454 18.1286C17.1142 18.0567 17.2493 17.9544 17.3506 17.8216C17.4519 17.6833 17.5025 17.4979 17.5025 17.2656C17.5025 17.0664 17.4631 16.9032 17.3843 16.7759C17.3112 16.6487 17.2099 16.5491 17.0805 16.4772C16.9567 16.4053 16.8132 16.3555 16.65 16.3278C16.4868 16.3001 16.3208 16.2863 16.1519 16.2863H14.5903V18.278H15.8818Z" fill="black"/>
<path d="M20.7884 13.6556C20.6309 13.6556 20.4705 13.6694 20.3073 13.6971C20.1497 13.7248 20.0062 13.7746 19.8768 13.8465C19.7474 13.9129 19.6404 14.0069 19.556 14.1286C19.4772 14.2448 19.4378 14.3942 19.4378 14.5768C19.4378 14.7981 19.4969 14.9779 19.6151 15.1162C19.7333 15.249 19.8768 15.3513 20.0456 15.4232C20.1807 15.4786 20.3242 15.5256 20.4761 15.5643C20.628 15.603 20.7828 15.639 20.9404 15.6722C21.1036 15.7054 21.2611 15.7386 21.4131 15.7718C21.5706 15.805 21.7226 15.8465 21.8689 15.8963C22.2122 16.0124 22.4851 16.1784 22.6877 16.3942C22.8959 16.61 23 16.8949 23 17.249C23 17.5809 22.9409 17.8548 22.8227 18.0705C22.7102 18.2863 22.5554 18.4633 22.3585 18.6017C22.1671 18.74 21.942 18.8423 21.6832 18.9087C21.4299 18.9696 21.1598 19 20.8728 19C20.5858 19 20.3101 18.9723 20.0456 18.917C19.7867 18.8617 19.5504 18.7704 19.3366 18.6432C19.1227 18.5159 18.9398 18.3499 18.7879 18.1452C18.6359 17.9405 18.529 17.6916 18.4671 17.3983H19.2353C19.2915 17.5864 19.3788 17.7414 19.4969 17.8631C19.6151 17.9848 19.7502 18.0816 19.9021 18.1535C20.054 18.2254 20.2172 18.2752 20.3917 18.3029C20.5718 18.3306 20.749 18.3444 20.9235 18.3444C21.0923 18.3444 21.2555 18.3278 21.4131 18.2946C21.5763 18.2559 21.7198 18.1978 21.8436 18.1203C21.9674 18.0429 22.0658 17.9433 22.139 17.8216C22.2122 17.6999 22.2487 17.5533 22.2487 17.3817C22.2487 17.1217 22.1784 16.9281 22.0377 16.8008C21.897 16.6736 21.7085 16.5768 21.4722 16.5104C21.3146 16.4606 21.1486 16.4191 20.9741 16.3859C20.7997 16.3527 20.6252 16.3167 20.4508 16.278C20.2763 16.2393 20.1047 16.195 19.9359 16.1452C19.767 16.0899 19.6123 16.0263 19.4716 15.9544C19.2465 15.8492 19.058 15.6888 18.9061 15.473C18.7541 15.2517 18.6781 14.9751 18.6781 14.6432C18.6781 14.3333 18.74 14.0733 18.8638 13.8631C18.9877 13.6528 19.148 13.4841 19.345 13.3568C19.542 13.2296 19.7614 13.1383 20.0034 13.083C20.251 13.0277 20.5127 13 20.7884 13C21.0135 13.0055 21.2161 13.0249 21.3962 13.0581C21.5819 13.0858 21.7563 13.1383 21.9195 13.2158C22.1728 13.3264 22.3838 13.4924 22.5526 13.7137C22.7214 13.935 22.8143 14.2199 22.8312 14.5685H22.1137C22.0912 14.397 22.0377 14.2531 21.9533 14.1369C21.8745 14.0207 21.776 13.9267 21.6579 13.8548C21.5397 13.7828 21.4046 13.7331 21.2527 13.7054C21.1064 13.6722 20.9516 13.6556 20.7884 13.6556Z" fill="black"/>
<path d="M46.6 19H45.66L45.1 17.48H41.6L41.04 19H40.1L42.73 11.93H43.98L46.6 19ZM44.81 16.69L43.35 12.69L41.89 16.69H44.81ZM51.7869 19V12.72H48.8169C48.8035 13.08 48.7902 13.4467 48.7769 13.82C48.7702 14.1933 48.7635 14.56 48.7569 14.92C48.7569 15.12 48.7502 15.36 48.7369 15.64C48.7302 15.9133 48.7202 16.1933 48.7069 16.48C48.6935 16.7667 48.6702 17.04 48.6369 17.3C48.6035 17.56 48.5569 17.7733 48.4969 17.94C48.3835 18.28 48.1902 18.55 47.9169 18.75C47.6435 18.95 47.2502 19.0567 46.7369 19.07V18.21C46.9835 18.21 47.1902 18.1333 47.3569 17.98C47.5302 17.82 47.6435 17.6233 47.6969 17.39C47.7702 17.15 47.8135 16.8533 47.8269 16.5C47.8469 16.14 47.8635 15.8 47.8769 15.48C47.8902 14.8933 47.9035 14.3033 47.9169 13.71C47.9369 13.11 47.9469 12.5167 47.9469 11.93H52.6569V19H51.7869ZM56.6105 19H55.7405V12.72H53.4705V11.93H58.8805V12.72H56.6105V19ZM60.0815 18.19C60.2882 18.19 60.4748 18.18 60.6415 18.16C60.8082 18.1333 60.9615 18.0867 61.1015 18.02C61.2415 17.9467 61.3715 17.8467 61.4915 17.72C61.6182 17.5933 61.7382 17.4233 61.8515 17.21L59.0715 11.93H60.1015L62.3515 16.31L64.1315 11.93H65.0715C64.8582 12.41 64.6448 12.9033 64.4315 13.41C64.2248 13.91 64.0148 14.4133 63.8015 14.92C63.6415 15.3 63.4748 15.6867 63.3015 16.08C63.1348 16.4667 62.9582 16.8433 62.7715 17.21C62.6448 17.4633 62.5082 17.7 62.3615 17.92C62.2215 18.14 62.0715 18.3233 61.9115 18.47C61.6648 18.69 61.3948 18.8367 61.1015 18.91C60.8082 18.9767 60.4682 19.01 60.0815 19.01V18.19ZM68.4676 19.09V17.94H67.6676C67.2676 17.9333 66.9142 17.86 66.6076 17.72C66.3009 17.5733 66.0409 17.38 65.8276 17.14C65.6209 16.8933 65.4642 16.6033 65.3576 16.27C65.2509 15.9367 65.1976 15.5733 65.1976 15.18C65.2042 14.7733 65.2742 14.4067 65.4076 14.08C65.5409 13.7533 65.7209 13.4767 65.9476 13.25C66.1809 13.0233 66.4542 12.85 66.7676 12.73C67.0876 12.6033 67.4376 12.54 67.8176 12.54H68.4676V11.54H69.3376V12.54H69.9776C70.3576 12.54 70.7042 12.6033 71.0176 12.73C71.3376 12.85 71.6142 13.0233 71.8476 13.25C72.0809 13.4767 72.2642 13.7533 72.3976 14.08C72.5309 14.4067 72.6009 14.7733 72.6076 15.18C72.6076 15.5733 72.5509 15.9367 72.4376 16.27C72.3242 16.6033 72.1609 16.8933 71.9476 17.14C71.7342 17.38 71.4709 17.5733 71.1576 17.72C70.8442 17.86 70.4876 17.9333 70.0876 17.94H69.3376V19.09H68.4676ZM67.8876 13.29C67.6076 13.29 67.3542 13.3367 67.1276 13.43C66.9076 13.5233 66.7176 13.6533 66.5576 13.82C66.4042 13.98 66.2842 14.1767 66.1976 14.41C66.1176 14.6367 66.0776 14.8867 66.0776 15.16C66.0776 15.4533 66.1109 15.7233 66.1776 15.97C66.2442 16.2167 66.3476 16.43 66.4876 16.61C66.6342 16.79 66.8176 16.9333 67.0376 17.04C67.2642 17.14 67.5342 17.19 67.8476 17.19H68.4676V13.29H67.8876ZM69.3376 17.19H69.9576C70.2709 17.19 70.5376 17.14 70.7576 17.04C70.9842 16.9333 71.1676 16.79 71.3076 16.61C71.4542 16.43 71.5609 16.2167 71.6276 15.97C71.6942 15.7233 71.7276 15.4533 71.7276 15.16C71.7276 14.8867 71.6842 14.6367 71.5976 14.41C71.5176 14.1767 71.3976 13.98 71.2376 13.82C71.0842 13.6533 70.8942 13.5233 70.6676 13.43C70.4476 13.3367 70.1976 13.29 69.9176 13.29H69.3376V17.19ZM73.7467 11.93H74.6167V14.85H76.0667C76.4201 14.85 76.7534 14.8767 77.0667 14.93C77.3867 14.9767 77.6667 15.0733 77.9067 15.22C78.1467 15.36 78.3401 15.56 78.4867 15.82C78.6334 16.0733 78.7101 16.4067 78.7167 16.82C78.7167 17.24 78.6434 17.59 78.4967 17.87C78.3567 18.1433 78.1634 18.3667 77.9167 18.54C77.6701 18.7067 77.3801 18.8267 77.0467 18.9C76.7201 18.9667 76.3734 19 76.0067 19H73.7467V11.93ZM74.6167 18.21H75.9267C76.1734 18.21 76.4101 18.1933 76.6367 18.16C76.8634 18.1267 77.0634 18.0633 77.2367 17.97C77.4167 17.8767 77.5601 17.7467 77.6667 17.58C77.7734 17.4133 77.8267 17.18 77.8267 16.88C77.8267 16.5933 77.7734 16.37 77.6667 16.21C77.5601 16.0433 77.4201 15.92 77.2467 15.84C77.0734 15.7533 76.8734 15.7 76.6467 15.68C76.4267 15.6533 76.2001 15.64 75.9667 15.64H74.6167V18.21ZM79.8848 19V11.93H84.6348V12.72H80.7548V15.1H84.2448V15.9H80.7548V18.21H84.6348V19H79.8848ZM85.7784 11.93H88.2584C88.5984 11.93 88.905 11.95 89.1784 11.99C89.4584 12.03 89.7084 12.1233 89.9284 12.27C90.1217 12.3967 90.285 12.5767 90.4184 12.81C90.5517 13.0433 90.6184 13.34 90.6184 13.7C90.6184 14.06 90.535 14.38 90.3684 14.66C90.2084 14.94 89.9584 15.1467 89.6184 15.28C90.0717 15.36 90.4117 15.5533 90.6384 15.86C90.865 16.16 90.9784 16.55 90.9784 17.03C90.9584 17.47 90.865 17.8133 90.6984 18.06C90.5317 18.3067 90.3184 18.5 90.0584 18.64C89.7984 18.78 89.505 18.8767 89.1784 18.93C88.8584 18.9767 88.535 19 88.2084 19H85.7784V11.93ZM86.6484 12.72V15.03H88.0084C88.195 15.03 88.3884 15.0167 88.5884 14.99C88.7884 14.9633 88.9684 14.9067 89.1284 14.82C89.315 14.7267 89.465 14.6 89.5784 14.44C89.6984 14.2733 89.7617 14.0467 89.7684 13.76C89.7684 13.5333 89.7284 13.3533 89.6484 13.22C89.5684 13.08 89.4584 12.9733 89.3184 12.9C89.1784 12.8267 89.0184 12.78 88.8384 12.76C88.6584 12.7333 88.4684 12.72 88.2684 12.72H86.6484ZM88.1784 18.21C88.3917 18.21 88.605 18.2 88.8184 18.18C89.0384 18.16 89.245 18.11 89.4384 18.03C89.6384 17.9433 89.7984 17.82 89.9184 17.66C90.0384 17.4933 90.0984 17.27 90.0984 16.99C90.0984 16.75 90.0517 16.5533 89.9584 16.4C89.8717 16.2467 89.7517 16.1267 89.5984 16.04C89.4517 15.9533 89.2817 15.8933 89.0884 15.86C88.895 15.8267 88.6984 15.81 88.4984 15.81H86.6484V18.21H88.1784ZM94.9911 12.64C94.5711 12.64 94.2111 12.7167 93.9111 12.87C93.6178 13.0233 93.3744 13.23 93.1811 13.49C92.9944 13.75 92.8578 14.05 92.7711 14.39C92.6844 14.7233 92.6411 15.0733 92.6411 15.44C92.6411 15.8333 92.6878 16.2033 92.7811 16.55C92.8744 16.8967 93.0178 17.2 93.2111 17.46C93.4044 17.7133 93.6511 17.9167 93.9511 18.07C94.2511 18.2167 94.6078 18.29 95.0211 18.29C95.5211 18.29 95.9411 18.1867 96.2811 17.98C96.6211 17.7733 96.8411 17.4967 96.9411 17.15H97.8911C97.7378 17.7367 97.4144 18.2067 96.9211 18.56C96.4278 18.9067 95.7878 19.08 95.0011 19.08C94.4544 19.08 93.9778 18.99 93.5711 18.81C93.1644 18.63 92.8244 18.38 92.5511 18.06C92.2844 17.74 92.0844 17.36 91.9511 16.92C91.8178 16.48 91.7511 15.9967 91.7511 15.47C91.7511 14.95 91.8178 14.47 91.9511 14.03C92.0844 13.59 92.2878 13.21 92.5611 12.89C92.8344 12.5633 93.1744 12.31 93.5811 12.13C93.9878 11.9433 94.4678 11.85 95.0211 11.85C95.4078 11.85 95.7544 11.8967 96.0611 11.99C96.3744 12.0833 96.6444 12.2167 96.8711 12.39C97.1044 12.5567 97.2944 12.76 97.4411 13C97.5878 13.2333 97.6944 13.4933 97.7611 13.78H96.8811C96.7811 13.4333 96.5644 13.1567 96.2311 12.95C95.9044 12.7433 95.4911 12.64 94.9911 12.64ZM99.9107 19H99.0407V11.93H99.9107V15.19H100.961L103.261 11.93H104.261L101.721 15.44L104.281 19H103.251L101.031 15.98H99.9107V19ZM107.728 19.08C107.175 19.08 106.691 18.99 106.278 18.81C105.865 18.6233 105.518 18.37 105.238 18.05C104.958 17.73 104.748 17.35 104.608 16.91C104.468 16.47 104.398 15.99 104.398 15.47C104.398 14.95 104.468 14.47 104.608 14.03C104.748 13.5833 104.958 13.2 105.238 12.88C105.518 12.56 105.865 12.31 106.278 12.13C106.691 11.9433 107.175 11.85 107.728 11.85C108.275 11.85 108.755 11.9433 109.168 12.13C109.581 12.31 109.928 12.56 110.208 12.88C110.488 13.2 110.698 13.5833 110.838 14.03C110.978 14.47 111.048 14.95 111.048 15.47C111.048 15.99 110.978 16.47 110.838 16.91C110.698 17.35 110.488 17.73 110.208 18.05C109.928 18.37 109.581 18.6233 109.168 18.81C108.755 18.99 108.275 19.08 107.728 19.08ZM107.728 12.64C107.308 12.64 106.945 12.7167 106.638 12.87C106.331 13.0167 106.078 13.22 105.878 13.48C105.678 13.74 105.528 14.0433 105.428 14.39C105.328 14.73 105.278 15.09 105.278 15.47C105.278 15.85 105.325 16.21 105.418 16.55C105.518 16.89 105.668 17.19 105.868 17.45C106.068 17.71 106.321 17.9167 106.628 18.07C106.941 18.2167 107.308 18.29 107.728 18.29C108.148 18.29 108.511 18.2167 108.818 18.07C109.125 17.9167 109.375 17.7133 109.568 17.46C109.768 17.2 109.915 16.9 110.008 16.56C110.108 16.22 110.158 15.8567 110.158 15.47C110.158 15.0833 110.108 14.72 110.008 14.38C109.915 14.0333 109.768 13.7333 109.568 13.48C109.368 13.22 109.115 13.0167 108.808 12.87C108.501 12.7167 108.141 12.64 107.728 12.64ZM112.195 19V11.93H116.945V12.72H113.065V15.1H116.555V15.9H113.065V18.21H116.945V19H112.195ZM120.594 11.93H121.464V18.21H124.114V11.93H124.984V18.21H127.634V11.93H128.504V19H120.594V11.93ZM132.983 19.08C132.429 19.08 131.946 18.99 131.533 18.81C131.119 18.6233 130.773 18.37 130.493 18.05C130.213 17.73 130.003 17.35 129.863 16.91C129.723 16.47 129.653 15.99 129.653 15.47C129.653 14.95 129.723 14.47 129.863 14.03C130.003 13.5833 130.213 13.2 130.493 12.88C130.773 12.56 131.119 12.31 131.533 12.13C131.946 11.9433 132.429 11.85 132.983 11.85C133.529 11.85 134.009 11.9433 134.423 12.13C134.836 12.31 135.183 12.56 135.463 12.88C135.743 13.2 135.953 13.5833 136.093 14.03C136.233 14.47 136.303 14.95 136.303 15.47C136.303 15.99 136.233 16.47 136.093 16.91C135.953 17.35 135.743 17.73 135.463 18.05C135.183 18.37 134.836 18.6233 134.423 18.81C134.009 18.99 133.529 19.08 132.983 19.08ZM132.983 12.64C132.563 12.64 132.199 12.7167 131.893 12.87C131.586 13.0167 131.333 13.22 131.133 13.48C130.933 13.74 130.783 14.0433 130.683 14.39C130.583 14.73 130.533 15.09 130.533 15.47C130.533 15.85 130.579 16.21 130.673 16.55C130.773 16.89 130.923 17.19 131.123 17.45C131.323 17.71 131.576 17.9167 131.883 18.07C132.196 18.2167 132.563 18.29 132.983 18.29C133.403 18.29 133.766 18.2167 134.073 18.07C134.379 17.9167 134.629 17.7133 134.823 17.46C135.023 17.2 135.169 16.9 135.263 16.56C135.363 16.22 135.413 15.8567 135.413 15.47C135.413 15.0833 135.363 14.72 135.263 14.38C135.169 14.0333 135.023 13.7333 134.823 13.48C134.623 13.22 134.369 13.0167 134.063 12.87C133.756 12.7167 133.396 12.64 132.983 12.64ZM140.349 12.64C139.929 12.64 139.569 12.7167 139.269 12.87C138.976 13.0233 138.732 13.23 138.539 13.49C138.352 13.75 138.216 14.05 138.129 14.39C138.042 14.7233 137.999 15.0733 137.999 15.44C137.999 15.8333 138.046 16.2033 138.139 16.55C138.232 16.8967 138.376 17.2 138.569 17.46C138.762 17.7133 139.009 17.9167 139.309 18.07C139.609 18.2167 139.966 18.29 140.379 18.29C140.879 18.29 141.299 18.1867 141.639 17.98C141.979 17.7733 142.199 17.4967 142.299 17.15H143.249C143.096 17.7367 142.772 18.2067 142.279 18.56C141.786 18.9067 141.146 19.08 140.359 19.08C139.812 19.08 139.336 18.99 138.929 18.81C138.522 18.63 138.182 18.38 137.909 18.06C137.642 17.74 137.442 17.36 137.309 16.92C137.176 16.48 137.109 15.9967 137.109 15.47C137.109 14.95 137.176 14.47 137.309 14.03C137.442 13.59 137.646 13.21 137.919 12.89C138.192 12.5633 138.532 12.31 138.939 12.13C139.346 11.9433 139.826 11.85 140.379 11.85C140.766 11.85 141.112 11.8967 141.419 11.99C141.732 12.0833 142.002 12.2167 142.229 12.39C142.462 12.5567 142.652 12.76 142.799 13C142.946 13.2333 143.052 13.4933 143.119 13.78H142.239C142.139 13.4333 141.922 13.1567 141.589 12.95C141.262 12.7433 140.849 12.64 140.349 12.64ZM147.297 12.64C146.877 12.64 146.517 12.7167 146.217 12.87C145.924 13.0233 145.681 13.23 145.487 13.49C145.301 13.75 145.164 14.05 145.077 14.39C144.991 14.7233 144.947 15.0733 144.947 15.44C144.947 15.8333 144.994 16.2033 145.087 16.55C145.181 16.8967 145.324 17.2 145.517 17.46C145.711 17.7133 145.957 17.9167 146.257 18.07C146.557 18.2167 146.914 18.29 147.327 18.29C147.827 18.29 148.247 18.1867 148.587 17.98C148.927 17.7733 149.147 17.4967 149.247 17.15H150.197C150.044 17.7367 149.721 18.2067 149.227 18.56C148.734 18.9067 148.094 19.08 147.307 19.08C146.761 19.08 146.284 18.99 145.877 18.81C145.471 18.63 145.131 18.38 144.857 18.06C144.591 17.74 144.391 17.36 144.257 16.92C144.124 16.48 144.057 15.9967 144.057 15.47C144.057 14.95 144.124 14.47 144.257 14.03C144.391 13.59 144.594 13.21 144.867 12.89C145.141 12.5633 145.481 12.31 145.887 12.13C146.294 11.9433 146.774 11.85 147.327 11.85C147.714 11.85 148.061 11.8967 148.367 11.99C148.681 12.0833 148.951 12.2167 149.177 12.39C149.411 12.5567 149.601 12.76 149.747 13C149.894 13.2333 150.001 13.4933 150.067 13.78H149.187C149.087 13.4333 148.871 13.1567 148.537 12.95C148.211 12.7433 147.797 12.64 147.297 12.64ZM151.347 19V11.93H156.097V12.72H152.217V15.1H155.707V15.9H152.217V18.21H156.097V19H151.347ZM157.66 19.02C157.487 19.0067 157.347 18.95 157.24 18.85C157.134 18.75 157.08 18.6167 157.08 18.45C157.087 18.2767 157.147 18.14 157.26 18.04C157.38 17.9333 157.517 17.88 157.67 17.88C157.864 17.88 158.017 17.95 158.13 18.09C158.25 18.23 158.31 18.4267 158.31 18.68C158.31 18.82 158.28 18.9733 158.22 19.14C158.167 19.3133 158.094 19.47 158 19.61C157.907 19.75 157.797 19.8733 157.67 19.98C157.55 20.0867 157.424 20.1633 157.29 20.21L157.05 19.88C157.184 19.7867 157.307 19.66 157.42 19.5C157.54 19.34 157.62 19.18 157.66 19.02ZM161.2 20.95V18.21C161.44 18.21 161.62 18.1667 161.74 18.08C161.867 17.9867 161.964 17.8633 162.03 17.71C162.11 17.51 162.174 17.25 162.22 16.93C162.274 16.6033 162.314 16.27 162.34 15.93C162.387 15.2633 162.42 14.5967 162.44 13.93C162.46 13.2633 162.474 12.5967 162.48 11.93H167V18.21H167.85V20.95H166.98V19H162.07V20.95H161.2ZM166.13 18.21V12.72H163.33L163.24 15.47C163.234 15.63 163.224 15.82 163.21 16.04C163.204 16.26 163.184 16.4933 163.15 16.74C163.124 16.98 163.084 17.2267 163.03 17.48C162.977 17.7333 162.904 17.9767 162.81 18.21H166.13ZM171.68 19.08C171.127 19.08 170.644 18.99 170.23 18.81C169.817 18.6233 169.47 18.37 169.19 18.05C168.91 17.73 168.7 17.35 168.56 16.91C168.42 16.47 168.35 15.99 168.35 15.47C168.35 14.95 168.42 14.47 168.56 14.03C168.7 13.5833 168.91 13.2 169.19 12.88C169.47 12.56 169.817 12.31 170.23 12.13C170.644 11.9433 171.127 11.85 171.68 11.85C172.227 11.85 172.707 11.9433 173.12 12.13C173.534 12.31 173.88 12.56 174.16 12.88C174.44 13.2 174.65 13.5833 174.79 14.03C174.93 14.47 175 14.95 175 15.47C175 15.99 174.93 16.47 174.79 16.91C174.65 17.35 174.44 17.73 174.16 18.05C173.88 18.37 173.534 18.6233 173.12 18.81C172.707 18.99 172.227 19.08 171.68 19.08ZM171.68 12.64C171.26 12.64 170.897 12.7167 170.59 12.87C170.284 13.0167 170.03 13.22 169.83 13.48C169.63 13.74 169.48 14.0433 169.38 14.39C169.28 14.73 169.23 15.09 169.23 15.47C169.23 15.85 169.277 16.21 169.37 16.55C169.47 16.89 169.62 17.19 169.82 17.45C170.02 17.71 170.274 17.9167 170.58 18.07C170.894 18.2167 171.26 18.29 171.68 18.29C172.1 18.29 172.464 18.2167 172.77 18.07C173.077 17.9167 173.327 17.7133 173.52 17.46C173.72 17.2 173.867 16.9 173.96 16.56C174.06 16.22 174.11 15.8567 174.11 15.47C174.11 15.0833 174.06 14.72 173.96 14.38C173.867 14.0333 173.72 13.7333 173.52 13.48C173.32 13.22 173.067 13.0167 172.76 12.87C172.454 12.7167 172.094 12.64 171.68 12.64ZM176.148 19V11.93H177.448L179.608 15.82L181.738 11.93H183.008V19H182.138V12.81L179.788 17.16H179.388L177.018 12.81V19H176.148ZM189.087 19.08C188.807 19.08 188.523 19.0533 188.237 19C187.957 18.9467 187.693 18.8567 187.447 18.73C187.207 18.5967 187 18.4233 186.827 18.21C186.66 17.9967 186.553 17.7333 186.507 17.42H187.407C187.467 17.5933 187.557 17.7367 187.677 17.85C187.803 17.9567 187.943 18.0433 188.097 18.11C188.257 18.1767 188.423 18.2233 188.597 18.25C188.77 18.2767 188.937 18.29 189.097 18.29C189.243 18.29 189.41 18.2767 189.597 18.25C189.783 18.2233 189.957 18.1667 190.117 18.08C190.283 17.9933 190.42 17.8667 190.527 17.7C190.64 17.5267 190.697 17.3 190.697 17.02C190.697 16.7533 190.643 16.54 190.537 16.38C190.437 16.22 190.303 16.0967 190.137 16.01C189.977 15.9233 189.793 15.8667 189.587 15.84C189.387 15.8133 189.183 15.8 188.977 15.8H188.297V15.02H188.707C188.887 15.02 189.053 15.0167 189.207 15.01C189.36 14.9967 189.53 14.95 189.717 14.87C189.93 14.77 190.1 14.63 190.227 14.45C190.353 14.2633 190.42 14.05 190.427 13.81C190.427 13.57 190.387 13.3733 190.307 13.22C190.227 13.0667 190.12 12.9467 189.987 12.86C189.853 12.7733 189.703 12.7167 189.537 12.69C189.37 12.6567 189.2 12.64 189.027 12.64C188.887 12.64 188.74 12.6567 188.587 12.69C188.44 12.7167 188.3 12.7633 188.167 12.83C188.04 12.8967 187.927 12.9867 187.827 13.1C187.727 13.2067 187.657 13.3367 187.617 13.49H186.747C186.787 13.1967 186.88 12.9467 187.027 12.74C187.173 12.5333 187.353 12.3633 187.567 12.23C187.787 12.0967 188.027 12 188.287 11.94C188.553 11.88 188.823 11.85 189.097 11.85C189.397 11.85 189.677 11.8833 189.937 11.95C190.203 12.01 190.437 12.1133 190.637 12.26C190.837 12.4 190.993 12.5867 191.107 12.82C191.227 13.0533 191.287 13.3367 191.287 13.67C191.287 13.7967 191.273 13.9333 191.247 14.08C191.22 14.22 191.17 14.36 191.097 14.5C191.023 14.64 190.917 14.78 190.777 14.92C190.637 15.06 190.453 15.1767 190.227 15.27C190.673 15.3567 191.013 15.5533 191.247 15.86C191.48 16.16 191.597 16.5233 191.597 16.95V16.99C191.597 17.3567 191.53 17.6733 191.397 17.94C191.27 18.2 191.093 18.4167 190.867 18.59C190.64 18.7567 190.373 18.88 190.067 18.96C189.76 19.04 189.433 19.08 189.087 19.08ZM192.963 19L195.823 12.73H192.083V11.93H196.783V12.65L193.923 19H192.963ZM197.193 19.02C197.02 19.0067 196.88 18.95 196.773 18.85C196.667 18.75 196.613 18.6167 196.613 18.45C196.62 18.2767 196.68 18.14 196.793 18.04C196.913 17.9333 197.05 17.88 197.203 17.88C197.397 17.88 197.55 17.95 197.663 18.09C197.783 18.23 197.843 18.4267 197.843 18.68C197.843 18.82 197.813 18.9733 197.753 19.14C197.7 19.3133 197.627 19.47 197.533 19.61C197.44 19.75 197.33 19.8733 197.203 19.98C197.083 20.0867 196.957 20.1633 196.823 20.21L196.583 19.88C196.717 19.7867 196.84 19.66 196.953 19.5C197.073 19.34 197.153 19.18 197.193 19.02ZM204.233 12.64C203.813 12.64 203.453 12.7167 203.153 12.87C202.86 13.0233 202.617 13.23 202.423 13.49C202.237 13.75 202.1 14.05 202.013 14.39C201.927 14.7233 201.883 15.0733 201.883 15.44C201.883 15.8333 201.93 16.2033 202.023 16.55C202.117 16.8967 202.26 17.2 202.453 17.46C202.647 17.7133 202.893 17.9167 203.193 18.07C203.493 18.2167 203.85 18.29 204.263 18.29C204.763 18.29 205.183 18.1867 205.523 17.98C205.863 17.7733 206.083 17.4967 206.183 17.15H207.133C206.98 17.7367 206.657 18.2067 206.163 18.56C205.67 18.9067 205.03 19.08 204.243 19.08C203.697 19.08 203.22 18.99 202.813 18.81C202.407 18.63 202.067 18.38 201.793 18.06C201.527 17.74 201.327 17.36 201.193 16.92C201.06 16.48 200.993 15.9967 200.993 15.47C200.993 14.95 201.06 14.47 201.193 14.03C201.327 13.59 201.53 13.21 201.803 12.89C202.077 12.5633 202.417 12.31 202.823 12.13C203.23 11.9433 203.71 11.85 204.263 11.85C204.65 11.85 204.997 11.8967 205.303 11.99C205.617 12.0833 205.887 12.2167 206.113 12.39C206.347 12.5567 206.537 12.76 206.683 13C206.83 13.2333 206.937 13.4933 207.003 13.78H206.123C206.023 13.4333 205.807 13.1567 205.473 12.95C205.147 12.7433 204.733 12.64 204.233 12.64ZM210.595 19H209.725V12.72H207.455V11.93H212.865V12.72H210.595V19ZM213.679 19V11.93H216.129C216.909 11.93 217.519 12.1233 217.959 12.51C218.399 12.89 218.619 13.48 218.619 14.28C218.619 14.6867 218.545 15.0433 218.399 15.35C218.259 15.6567 218.062 15.91 217.809 16.11C217.595 16.2833 217.329 16.42 217.009 16.52C216.689 16.62 216.335 16.67 215.949 16.67H214.549V19H213.679ZM214.549 15.88H215.909C216.162 15.88 216.409 15.85 216.649 15.79C216.889 15.7233 217.085 15.62 217.239 15.48C217.392 15.3467 217.512 15.1833 217.599 14.99C217.685 14.7967 217.729 14.5467 217.729 14.24C217.729 13.2267 217.182 12.72 216.089 12.72H214.549V15.88ZM219.23 17.88C219.403 17.88 219.547 17.9367 219.66 18.05C219.773 18.1633 219.83 18.3067 219.83 18.48C219.83 18.6533 219.773 18.7967 219.66 18.91C219.547 19.0233 219.403 19.08 219.23 19.08C219.057 19.08 218.913 19.0233 218.8 18.91C218.687 18.7967 218.63 18.6533 218.63 18.48C218.63 18.3067 218.687 18.1633 218.8 18.05C218.913 17.9367 219.057 17.88 219.23 17.88ZM222.664 19H221.794V13.33H220.354V12.74C220.554 12.7267 220.737 12.71 220.904 12.69C221.071 12.6633 221.224 12.62 221.364 12.56C221.504 12.5 221.631 12.42 221.744 12.32C221.857 12.22 221.961 12.09 222.054 11.93H222.664V19Z" fill="white"/>
</svg>
